#!OML:ASF H:\ManfredETheater\Project 1\Capture day 1\Session 1\subject.ASF
:FULLY-SPECIFIED
:DEGREES
1486
root 3.48495 17.9715 -3.88076 6.31049 5.65758 0.251144
lowerback 1.76569 -0.66681 -1.2908
upperback -3.36059 -0.902866 0.99074
thorax -4.41854 -0.386113 1.79632
lowerneck -20.8 -3.66064 -4.97779
upperneck 9.9847 -4.38765 5.6165
head 6.64749 -1.81151 2.11947
rclavicle 7.00095e-015 1.33186e-014
rhumerus -19.3489 -26.4612 1.7083
rradius 24.0702
rwrist 5.03538
rhand -19.192 -18.6054
rfingers 7.12502
rthumb 7.11982 -48.4656
lclavicle 7.00095e-015 1.33186e-014
lhumerus -17.7889 23.1539 6.38353
lradius 23.3707
lwrist -19.2191
lhand -15.9304 17.2041
lfingers 7.12502
lthumb 10.2673 46.9335
rfemur -13.5135 -3.20565 19.5774
rtibia 32.8065
rfoot -21.3306 -15.685
rtoes 10.8124
lfemur -16.1811 -5.09174 -17.6531
ltibia 34.365
lfoot -19.8522 4.01796
ltoes -1.59378
1487
root 3.48842 17.9713 -3.87684 6.30819 5.66762 0.254167
lowerback 1.75107 -0.67054 -1.29003
upperback -3.36566 -0.907592 0.992755
thorax -4.4153 -0.38845 1.79805
lowerneck -20.7811 -3.65253 -4.96823
upperneck 9.99719 -4.37976 5.60949
head 6.64771 -1.8082 2.11675
rclavicle 1.9623e-014 4.37326e-015
rhumerus -19.3553 -26.431 1.69956
rradius 24.0713
rwrist 5.0049
rhand -19.1678 -18.6164
rfingers 7.12502
rthumb 7.14314 -48.4759
lclavicle 1.9623e-014 4.37326e-015
lhumerus -17.813 23.138 6.37922
lradius 23.3722
lwrist -19.1953
lhand -15.9061 17.2065
lfingers 7.12502
lthumb 10.2908 46.9347
rfemur -13.4906 -3.19935 19.5639
rtibia 32.8034
rfoot -21.3428 -15.6991
rtoes 10.7972
lfemur -16.1608 -5.07997 -17.6648
ltibia 34.3604
lfoot -19.8622 3.98532
ltoes -1.59949
1488
root 3.49174 17.971 -3.87283 6.30252 5.68174 0.258789
lowerback 1.73861 -0.675442 -1.29261
upperback -3.36863 -0.91402 0.995321
thorax -4.41098 -0.391537 1.80234
lowerneck -20.7648 -3.64459 -4.95958
upperneck 10.0106 -4.37174 5.60241
head 6.64865 -1.80482 2.11415
rclavicle -2.11387e-014 1.63003e-014
rhumerus -19.3623 -26.4017 1.69414
rradius 24.0727
rwrist 4.97335
rhand -19.1471 -18.6341
rfingers 7.12502
rthumb 7.16319 -48.4929
lclavicle -2.11387e-014 1.63003e-014
lhumerus -17.8376 23.1155 6.37702
lradius 23.3763
lwrist -19.1648
lhand -15.8737 17.2041
lfingers 7.12502
lthumb 10.322 46.9308
rfemur -13.4631 -3.19598 19.5492
rtibia 32.8011
rfoot -21.3572 -15.7134
rtoes 10.7839
lfemur -16.1362 -5.07189 -17.6775
ltibia 34.3551
lfoot -19.8725 3.95221
ltoes -1.60595
1489
root 3.49492 17.9706 -3.8688 6.2943 5.69829 0.264339
lowerback 1.728 -0.680736 -1.29785
upperback -3.36936 -0.921078 0.998372
thorax -4.40531 -0.394867 1.80865
lowerneck -20.7522 -3.6371 -4.95177
upperneck 10.0246 -4.36402 5.59578
head 6.65041 -1.8015 2.11176
rclavicle 2.02279e-015 1.78906e-014
rhumerus -19.3703 -26.3768 1.69266
rradius 24.074
rwrist 4.94459
rhand -19.1302 -18.6561
rfingers 7.12502
rthumb 7.17951 -48.5143
lclavicle 2.02279e-015 1.78906e-014
lhumerus -17.8612 23.0886 6.37785
lradius 23.3829
lwrist -19.1277
lhand -15.835 17.1987
lfingers 7.12502
lthumb 10.3593 46.9236
rfemur -13.4326 -3.19484 19.5342
rtibia 32.7996
rfoot -21.3731 -15.7276
rtoes 10.7718
lfemur -16.109 -5.06695 -17.6908
ltibia 34.3495
lfoot -19.8831 3.91953
ltoes -1.61256
1490
root 3.49796 17.9702 -3.86482 6.28442 5.71563 0.270061
lowerback 1.71852 -0.685713 -1.30477
upperback -3.36775 -0.927779 1.00176
thorax -4.39783 -0.397992 1.81623
lowerneck -20.7441 -3.63042 -4.94472
upperneck 10.038 -4.35712 5.5903
head 6.65279 -1.79844 2.10973
rclavicle -3.08504e-015 -1.39149e-014
rhumerus -19.3805 -26.3589 1.69545
rradius 24.075
rwrist 4.92122
rhand -19.1154 -18.6792
rfingers 7.12502
rthumb 7.19377 -48.5369
lclavicle -3.08504e-015 -1.39149e-014
lhumerus -17.8823 23.0606 6.38206
lradius 23.3918
lwrist -19.0851
lhand -15.7928 17.1907
lfingers 7.12502
lthumb 10.4001 46.9135
rfemur -13.4007 -3.19532 19.5194
rtibia 32.7989
rfoot -21.3898 -15.741
rtoes 10.7602
lfemur -16.0802 -5.06523 -17.7039
ltibia 34.3439
lfoot -19.8938 3.88907
ltoes -1.61891
